<svg width="287" height="287" viewBox="0 0 287 287" fill="none" xmlns="http://www.w3.org/2000/svg">
<rect width="287" height="287" fill="white"/>
<path fill-rule="evenodd" clip-rule="evenodd" d="M136.462 214.41C101.061 206.662 53.8943 191.287 61.6451 138.532C69.396 85.7769 102.622 65.436 143.727 65.436C184.832 65.436 231.533 96.4477 222.365 160.691C213.197 224.935 171.862 222.158 136.462 214.41ZM252.82 150.817C254.282 136.138 252.729 121.613 248.557 107.998L260.46 101.621C262.467 100.547 263.221 98.0503 262.149 96.0444L245.897 65.7031C244.821 63.6972 242.324 62.9423 240.317 64.0167L228.414 70.3932C219.389 59.378 208.159 50.0374 195.132 43.1201L199.037 30.1996C199.697 28.0215 198.465 25.7223 196.286 25.0639L163.339 15.1013C161.16 14.4429 158.862 15.6745 158.203 17.8526L154.298 30.7731C139.616 29.3117 128.92 34.6915 115.304 38.8612L108.927 26.9571C107.854 24.9513 105.356 24.1964 103.351 25.2707L73.0095 41.5235C71.0037 42.5978 70.2488 45.0946 71.3231 47.1001L77.6996 59.0045C66.6845 68.0284 53.5172 75.4321 46.6 88.4616L33.6791 84.5549C31.5014 83.8964 29.2018 85.128 28.5434 87.3058L18.5812 120.253C17.9227 122.431 19.1544 124.73 21.3321 125.389L34.253 129.296C32.7916 143.975 34.3447 158.5 38.5144 172.115L26.6103 178.492C24.6045 179.566 23.8496 182.063 24.9239 184.069L41.1766 214.41C42.2509 216.415 44.7477 217.171 46.7532 216.096L58.6576 209.719C67.6815 220.735 78.9119 230.076 91.9414 236.993L88.0346 249.913C87.3762 252.091 88.6078 254.391 90.7855 255.049L123.733 265.01C125.909 265.67 128.21 264.438 128.87 262.259L132.774 249.34C147.453 250.801 161.979 249.248 175.595 245.078L181.97 256.983C183.046 258.988 185.543 259.742 187.549 258.669L217.891 242.416C219.894 241.342 220.652 238.845 219.576 236.839L213.197 224.935C224.215 215.911 233.553 204.681 240.473 191.651L253.392 195.558C255.571 196.216 257.872 194.985 258.528 192.807L268.49 159.86C269.15 157.682 267.918 155.382 265.739 154.724L252.82 150.817Z" fill="#5B96F7"/>
<path fill-rule="evenodd" clip-rule="evenodd" d="M189.073 76.744L187.925 76.7052L187.893 77.7246C187.839 79.5588 187.864 81.5209 187.891 83.6602C187.91 85.151 187.93 86.728 187.925 88.4077L187.735 91.7245C187.74 94.8145 187.762 99.1154 187.8 104.627L187.925 120.318C187.082 120.598 186.448 121.326 186.321 122.212C185.625 122.318 185.091 122.908 185.091 123.619C185.091 124.122 185.359 124.565 185.762 124.819L185.271 126.005C185.053 126.532 184.693 126.983 184.231 127.308C182.203 128.734 181.009 131.045 181.038 133.488C181.038 133.553 181.04 133.617 181.042 133.682C181.051 133.916 181.252 134.097 181.492 134.09C181.731 134.082 181.917 133.885 181.908 133.651C181.906 133.593 181.905 133.536 181.904 133.478C181.879 131.312 183.32 129.263 185.119 127.998C185.715 127.578 186.177 127 186.457 126.324L186.604 125.044H187.22C187.22 125.044 187.434 126.196 187.434 127.096C187.434 127.997 187.22 129.781 187.22 129.781H186.51C185.696 129.781 185.035 130.429 185.035 131.225C185.035 132.022 185.696 132.67 186.51 132.67H186.611C187.425 132.67 187.704 132.254 187.704 131.225C187.704 130.687 187.763 130.302 188.642 130.302C189.521 130.302 189.294 131.225 189.294 131.225C189.294 132.022 189.956 132.67 190.769 132.67H190.871C191.684 132.67 192.346 132.022 192.346 131.225C192.346 130.429 190.974 129.755 190.161 129.755C190.161 129.755 189.944 128.134 189.944 127.308C189.944 126.612 190.161 125.189 190.161 125.189H189.294C189.294 125.189 189.475 126.517 189.475 127.328C189.475 128.139 189.294 129.755 189.294 129.755C189.294 129.755 188.817 129.841 188.589 129.846C188.361 129.851 188.086 129.781 188.086 129.781C188.086 129.781 187.896 128.123 187.896 127.328C187.896 126.532 188.086 125.044 188.086 125.044H189.294H190.161H190.777L191.306 126.323C191.572 126.966 192.369 127.531 192.975 127.961L193.052 128.015C194.81 129.264 195.477 131.277 195.477 133.401C195.477 135.195 194.759 136.877 193.454 138.136C192.15 139.395 190.423 140.457 188.589 140.431C187.135 140.41 185.649 139.609 184.487 138.741C183.361 137.9 181.904 135.6 181.662 135.07C181.419 134.539 181.305 135.376 181.375 135.6C181.842 137.081 182.797 138.417 184.065 139.364C185.376 140.344 186.936 140.874 188.576 140.897C190.644 140.926 192.591 140.161 194.062 138.741C195.534 137.321 196.344 135.424 196.344 133.401C196.344 131.006 195.16 128.736 193.178 127.328C192.695 126.985 192.326 126.527 192.11 126.005L191.619 124.819C192.022 124.565 192.29 124.122 192.29 123.619C192.29 122.909 191.756 122.318 191.06 122.212C190.917 121.213 190.129 120.415 189.124 120.234L189.068 120.234L188.403 105.643C188.364 100.089 188.883 88.9876 188.883 88.9876C188.893 84.7186 188.945 80.9759 189.041 77.7596L189.073 76.744ZM190.769 131.821C190.434 131.821 190.161 131.554 190.161 131.225V130.302C190.161 130.302 191.48 130.566 191.48 131.225C191.48 131.831 191.25 131.827 190.953 131.822L190.952 131.822C190.926 131.822 190.899 131.821 190.871 131.821H190.769ZM185.57 131.225C185.626 132.055 187.347 132.417 187.22 131.225V130.302C187.22 130.302 185.514 130.395 185.57 131.225ZM187.204 122.195C187.364 121.535 187.969 121.043 188.69 121.043C189.411 121.043 190.017 121.535 190.176 122.195H187.204ZM190.836 123.044H190.651H186.73H186.545C186.221 123.044 185.958 123.302 185.958 123.619C185.958 123.937 186.221 124.195 186.545 124.195H190.836C191.16 124.195 191.424 123.937 191.424 123.619C191.424 123.302 191.16 123.044 190.836 123.044ZM198.261 126.739H199.018C199.232 126.739 199.405 126.568 199.405 126.356C199.405 126.145 199.232 125.974 199.018 125.974H198.261C198.048 125.974 197.874 126.145 197.874 126.356C197.874 126.568 198.048 126.739 198.261 126.739ZM197.659 129.448L198.388 129.755C198.594 129.841 198.693 130.086 198.611 130.302C198.528 130.517 198.295 130.622 198.09 130.535L197.361 130.229C197.155 130.142 197.056 129.897 197.138 129.682C197.201 129.518 197.351 129.418 197.51 129.418C197.56 129.418 197.61 129.428 197.659 129.448ZM197.009 123.208L197.692 122.66C197.884 122.506 197.932 122.199 197.799 121.976C197.717 121.838 197.585 121.764 197.45 121.764C197.367 121.764 197.283 121.793 197.209 121.852L196.527 122.4C196.334 122.554 196.286 122.86 196.419 123.083C196.552 123.306 196.816 123.362 197.009 123.208ZM178.737 126.739H177.98C177.766 126.739 177.593 126.568 177.593 126.356C177.593 126.145 177.766 125.974 177.98 125.974H178.737C178.951 125.974 179.124 126.145 179.124 126.356C179.124 126.568 178.951 126.739 178.737 126.739ZM179.339 129.448L178.61 129.755C178.405 129.841 178.305 130.086 178.387 130.302C178.47 130.517 178.703 130.622 178.909 130.535L179.637 130.229C179.843 130.142 179.943 129.897 179.86 129.682C179.797 129.518 179.647 129.418 179.488 129.418C179.438 129.418 179.388 129.428 179.339 129.448ZM179.989 123.208L179.307 122.66C179.114 122.506 179.066 122.199 179.199 121.976C179.281 121.838 179.414 121.764 179.548 121.764C179.631 121.764 179.715 121.793 179.789 121.852L180.472 122.4C180.664 122.554 180.712 122.86 180.579 123.083C180.446 123.306 180.182 123.362 179.989 123.208Z" fill="#FFB61D"/>
<path d="M132.542 183.596C136.763 184.707 138.929 187.351 140.758 189.814C142.591 192.276 138.561 191.104 136.338 190.215C134.115 189.327 128.761 186.04 128.761 186.04L111.013 180.672V172.463L116.321 172.153C116.321 172.153 128.317 182.485 132.542 183.596Z" fill="white"/>
<path d="M114.151 123.475C117.948 137.842 119.907 151.588 120.217 164.775C120.217 164.775 123.772 165.22 123.328 168.33C122.884 171.441 113.551 179.884 113.551 179.884L110.317 169.166L109.108 129.67L114.151 123.475" fill="white"/>
<path fill-rule="evenodd" clip-rule="evenodd" d="M115.447 130.828L113.267 129.382C113.128 129.29 112.944 129.361 112.894 129.528L112.134 132.052C112.07 132.262 112.26 132.459 112.456 132.388L115.396 131.309C115.596 131.235 115.627 130.947 115.447 130.828ZM115.183 131.245L112.504 132.02L113.301 129.724L115.183 131.245Z" fill="#FFB61D"/>
<path fill-rule="evenodd" clip-rule="evenodd" d="M114.49 149.004L112.31 147.559C112.171 147.466 111.987 147.538 111.937 147.704L111.177 150.229C111.114 150.439 111.303 150.636 111.499 150.564L114.439 149.486C114.639 149.412 114.67 149.124 114.49 149.004ZM114.226 149.422L111.547 150.197L112.345 147.901L114.226 149.422Z" fill="#FFB61D"/>
<path fill-rule="evenodd" clip-rule="evenodd" d="M113.344 159.216L113.506 156.606C113.516 156.439 113.362 156.316 113.193 156.356L110.627 156.959C110.413 157.01 110.337 157.272 110.498 157.406L112.902 159.413C113.066 159.549 113.33 159.432 113.344 159.216ZM112.85 159.196L110.84 157.264L113.227 156.807L112.85 159.196Z" fill="#FFB61D"/>
<path fill-rule="evenodd" clip-rule="evenodd" d="M117.475 157.29L114.865 157.128C114.698 157.118 114.575 157.272 114.614 157.441L115.218 160.007C115.269 160.221 115.531 160.297 115.665 160.137L117.671 157.732C117.808 157.569 117.691 157.304 117.475 157.29ZM117.455 157.784L115.523 159.794L115.065 157.407L117.455 157.784Z" fill="#FFB61D"/>
<path fill-rule="evenodd" clip-rule="evenodd" d="M115.46 170.599L113.118 171.763C112.968 171.838 112.939 172.033 113.058 172.159L114.864 174.08C115.014 174.24 115.279 174.174 115.315 173.969L115.851 170.883C115.887 170.673 115.653 170.502 115.46 170.599ZM115.689 171.036L115.021 173.743L113.431 171.904L115.689 171.036Z" fill="#FFB61D"/>
<path fill-rule="evenodd" clip-rule="evenodd" d="M116.608 163.328L114.266 164.493C114.116 164.567 114.086 164.762 114.205 164.888L116.012 166.809C116.162 166.969 116.427 166.904 116.463 166.698L116.999 163.613C117.035 163.402 116.801 163.232 116.608 163.328ZM116.837 163.765L116.169 166.472L114.579 164.634L116.837 163.765Z" fill="#FFB61D"/>
<path d="M101.425 132.114L98.8495 139.889C92.9631 157.694 90.0644 166.731 89.9774 167.579C89.9233 168.105 90.2424 168.498 90.7346 168.632C91.0304 168.712 91.3922 168.708 91.8414 168.641C92.5405 168.538 93.4751 168.276 94.6035 167.886C95.4758 167.585 96.4184 167.223 97.3732 166.832L97.7749 166.666C97.9054 166.612 98.0323 166.559 98.1552 166.506L98.7932 166.231L98.9753 166.151L99.0812 165.982C99.2694 165.683 99.5373 165.153 99.8017 164.427C100.034 163.789 100.219 163.106 100.341 162.384L100.383 162.112C100.421 161.847 100.785 161.233 101.536 160.186L102.059 159.47C102.488 158.891 103.313 157.787 103.396 157.675L103.881 157.018C104.345 156.386 104.75 155.821 105.146 155.251C107.13 152.394 108.532 149.894 109.359 147.488C110.061 145.447 110.307 143.555 110.029 141.817C109.604 139.163 109.767 136.627 110.388 134.247C110.904 132.269 109.271 130.445 106.918 129.774C104.487 129.081 102.171 129.866 101.425 132.114Z" fill="white"/>
<path d="M105.735 120.618C107.169 122.14 108.372 123.301 109.345 124.1C110.983 125.447 113.332 126.89 116.391 128.43C107.034 130.596 101.321 131.025 99.2514 129.715C99.2514 129.715 100.114 125.658 101.352 123.92C102.275 122.625 105.735 120.618 105.735 120.618Z" fill="white"/>
<path d="M120.618 101.059C118.674 108.442 113.363 116.15 107.707 114.662C102.051 113.173 98.9207 103.081 100.865 95.6983C102.809 88.3151 108.97 83.5368 114.625 85.0253C120.281 86.5139 122.562 93.6763 120.618 101.059" fill="white"/>
<path d="M121.912 103.414C119.712 111.863 113.701 120.684 107.3 118.981C100.9 117.277 97.3573 105.728 99.5572 97.2788C101.757 88.8294 108.729 83.361 115.13 85.0646C121.531 86.7681 124.112 94.9648 121.912 103.414" fill="white"/>
<path fill-rule="evenodd" clip-rule="evenodd" d="M111.697 86.0364C116.059 86.2841 119.242 87.717 121.026 90.2419L121.227 90.5339C122.11 91.8075 122.852 92.609 123.176 95.0196L123.208 95.2759C123.393 96.8617 123.447 98.5346 123.352 99.0898C123.301 99.3243 123.2 99.4062 123.073 99.3814C122.785 99.325 122.038 97.9984 120.834 95.4016L119.823 96.585C119.272 97.2206 118.106 97.8197 117.414 98.27C116.723 98.7203 111.697 86.0364 111.697 86.0364Z" fill="#E7EAEE"/>
<path fill-rule="evenodd" clip-rule="evenodd" d="M116.101 110.021C118.529 111.034 120.374 112.349 120.863 111.802C121.353 111.255 119.684 109.589 118.388 107.326C117.031 105.075 115.742 102.241 115.501 101.088L114.884 98.1727C113.08 100.45 111.39 108.091 116.101 110.021Z" fill="white"/>
<path d="M144.337 249.163L144.206 257.268H139.595L138.214 247.968L144.337 249.163" fill="white"/>
<path d="M93.8451 206.061C93.8451 206.061 123.759 205.401 133.163 204.044C143.602 202.539 149.311 198.98 151.581 199.401C152.645 199.598 158.924 200.711 172.026 202.104C177.568 202.693 191.952 202.784 191.952 202.784L197.534 190.902C197.534 190.902 158.248 183.014 145.827 186.428C141.921 187.502 133.46 189.051 123.401 188.485C114.702 187.996 91.0452 183.401 91.0452 183.401C91.0452 183.401 81.4934 186.83 83.2224 195.262C84.9513 203.694 93.8451 206.061 93.8451 206.061Z" fill="white"/>
<path fill-rule="evenodd" clip-rule="evenodd" d="M194.334 195.986L196.172 190.661C196.172 190.661 156.953 183.345 144.532 186.759C140.625 187.833 137.094 189.603 127.035 189.037C123.184 188.821 116.6 187.919 107.283 186.334C102.57 185.531 101.813 185.828 105.517 188.251C114.107 193.868 133.215 192.544 150.552 190.013C182.773 185.308 194.334 195.986 194.334 195.986Z" fill="#E7EAEE"/>
<path d="M139.133 251.003C137.181 253.159 134.594 256.711 135.926 260.266L159.035 267.376C159.035 267.376 159.923 264.708 158.591 262.489C157.256 260.266 144.647 251.494 144.647 251.494L139.133 251.003Z" fill="white"/>
<path fill-rule="evenodd" clip-rule="evenodd" d="M149.799 255.819C149.952 255.778 150.11 255.868 150.151 256.021C150.193 256.174 150.102 256.332 149.949 256.373C149.197 256.577 148.701 257.052 148.527 257.655C148.301 258.433 148.276 259.23 148.532 260.504C148.563 260.659 148.463 260.811 148.307 260.842C148.152 260.873 148.001 260.772 147.97 260.617C147.696 259.254 147.723 258.364 147.975 257.495C148.206 256.698 148.856 256.075 149.799 255.819Z" fill="#E7EAEE"/>
<path fill-rule="evenodd" clip-rule="evenodd" d="M137.074 260.648L159.809 267.338C159.809 267.338 162.696 266.731 159.71 266.307C156.643 265.871 138.683 257.647 136.708 259.145C136.427 259.358 136.9 260.184 137.074 260.648Z" fill="#E7EAEE"/>
<path d="M80.4255 204.365C80.4255 204.365 90.6841 207.603 98.9451 208.817C107.206 210.031 123.684 210.722 123.684 210.722C123.684 210.722 128.829 213.518 129.16 214.813C129.29 215.318 130.069 221.984 132.225 230.499C133.239 234.504 138.656 252.618 138.656 252.618L145.828 249.444C145.828 249.444 145.54 216.151 140.962 205.108C136.384 194.066 89.3307 183.341 89.3307 183.341C89.3307 183.341 79.3443 181.535 76.6256 189.702C73.9069 197.868 80.4255 204.365 80.4255 204.365Z" fill="white"/>
<path fill-rule="evenodd" clip-rule="evenodd" d="M139.804 251.47L146.975 248.296C146.783 226.1 145.162 211.322 142.11 203.96C142.11 203.96 145.229 243.15 139.804 251.47Z" fill="#E7EAEE"/>
<path d="M202.337 196.423C204.121 198.719 207.169 201.883 210.901 201.189L221.916 179.665C221.916 179.665 219.082 178.412 216.665 179.338C214.244 180.267 203.596 191.378 203.596 191.378L202.337 196.423Z" fill="white"/>
<path fill-rule="evenodd" clip-rule="evenodd" d="M154.494 259.641C154.608 259.531 154.79 259.535 154.9 259.65C155.009 259.764 155.006 259.946 154.891 260.055C154.224 260.694 154.101 261.765 154.483 262.411C154.564 262.548 154.519 262.724 154.382 262.804C154.246 262.885 154.07 262.84 153.989 262.704C153.473 261.832 153.631 260.468 154.494 259.641Z" fill="#E7EAEE"/>
<path fill-rule="evenodd" clip-rule="evenodd" d="M152.15 257.748C152.265 257.64 152.447 257.645 152.555 257.761C152.664 257.877 152.658 258.058 152.543 258.167L152.387 258.316C151.18 259.504 150.835 260.542 151.897 261.656C152.007 261.771 152.002 261.952 151.888 262.062C151.773 262.171 151.591 262.167 151.482 262.052C150.696 261.229 150.535 260.34 150.883 259.45C151.123 258.836 151.541 258.321 152.15 257.748Z" fill="#E7EAEE"/>
<path fill-rule="evenodd" clip-rule="evenodd" d="M141.103 257.372C141.762 258.632 145.26 258.115 144.651 254.632C144.363 252.984 139.279 253.885 141.103 257.372Z" fill="#E7EAEE"/>
<path fill-rule="evenodd" clip-rule="evenodd" d="M208.718 201.589C213.34 196.307 215.997 184.428 219.803 180.341C221.146 178.898 222.889 178.574 221.013 181.99C217.581 188.24 210.985 201.589 210.985 201.589C210.636 201.764 210.204 201.589 209.814 201.589H208.718Z" fill="#E7EAEE"/>
<path d="M132.542 183.596C136.763 184.707 138.929 187.351 140.758 189.814C142.591 192.276 138.561 191.104 136.338 190.215C134.115 189.327 129.862 185.954 129.862 185.954L132.542 183.596Z" fill="white"/>
<path d="M94.0953 173.598C94.0953 173.598 117.855 183.805 121.203 183.818C124.548 183.832 132.756 187.818 133.2 190.928C133.74 194.713 119.424 189.151 119.424 189.151C119.424 189.151 87.4293 189.151 82.0987 183.818C76.7648 178.486 80.3193 167.377 80.3193 167.377L94.0953 173.598" fill="white"/>
<path d="M88.3171 126.051C88.3171 126.051 94.0953 129.605 94.9831 141.159C95.8709 152.712 92.3159 166.488 92.3159 166.488C92.3159 166.488 94.5392 168.266 94.9831 170.043C95.427 171.821 94.0762 174.167 94.0762 174.167C94.0762 174.167 80.764 180.708 79.875 181.152C78.9865 181.597 75.4315 180.263 75.4315 176.708C75.4315 173.154 76.7647 170.043 76.7647 170.043C77.4026 146.591 73.654 123.828 88.3171 126.051" fill="white"/>
<path fill-rule="evenodd" clip-rule="evenodd" d="M111.855 101.466C113.222 99.6356 116.11 99.0397 116.881 101.929C116.881 101.929 117.474 103.672 116.28 104.75C112.623 108.05 110.488 103.296 111.855 101.466Z" fill="white"/>
<path fill-rule="evenodd" clip-rule="evenodd" d="M119.487 103.451C120.786 101.712 123.53 101.146 124.263 103.891C124.263 103.891 124.825 105.548 123.691 106.571C120.217 109.706 118.189 105.19 119.487 103.451Z" fill="white"/>
<path d="M108.855 125.707C108.855 125.707 108.855 147.068 109.169 159.004C109.482 170.941 106.746 182.702 101.519 191.899C96.2919 201.097 97.0033 214.254 93.1502 215.232C62.6728 222.968 70.8783 128.301 82.155 122.252C93.4317 116.203 97.1567 114.921 97.1567 114.921" fill="white"/>
<path fill-rule="evenodd" clip-rule="evenodd" d="M93.2242 131.701L90.5977 135.622C90.3798 135.947 90.5443 136.39 90.9216 136.495L94.4264 137.464C94.8338 137.576 95.219 137.225 95.1443 136.809L94.2661 131.919C94.1748 131.41 93.5115 131.272 93.2242 131.701ZM93.795 132.304L94.5794 136.911L91.5317 135.622L93.795 132.304Z" fill="#FFB61D"/>
<path fill-rule="evenodd" clip-rule="evenodd" d="M84.7735 127.87L81.6783 132.839C81.4806 133.156 81.6342 133.575 81.9902 133.689L87.3947 135.421C87.8447 135.566 88.2666 135.135 88.1126 134.688L85.8034 127.987C85.646 127.53 85.029 127.46 84.7735 127.87ZM85.5075 128.476L87.0888 134.688L82.403 132.839L85.5075 128.476Z" fill="#FFB61D"/>
<path fill-rule="evenodd" clip-rule="evenodd" d="M82.8666 165.46L84.9721 173.372C85.1015 173.858 85.7494 173.954 86.0146 173.527L89.145 168.48C89.3185 168.2 89.2216 167.832 88.9327 167.673L83.6969 164.808C83.2542 164.566 82.7369 164.972 82.8666 165.46ZM83.4213 165.695L88.2745 168.177L85.5268 173.224L83.4213 165.695Z" fill="#FFB61D"/>
<path fill-rule="evenodd" clip-rule="evenodd" d="M78.6505 194.514L79.7985 199.937C79.9038 200.435 80.5565 200.56 80.8381 200.136L83.9395 195.47C84.1683 195.126 83.9692 194.66 83.5622 194.587L79.3128 193.83C78.9119 193.758 78.5662 194.115 78.6505 194.514ZM79.6521 194.428L83.3348 195.733L80.1571 199.362L79.6521 194.428Z" fill="#FFB61D"/>
<path fill-rule="evenodd" clip-rule="evenodd" d="M88.5998 193.365L89.7478 198.789C89.8531 199.287 90.5058 199.412 90.7874 198.988L93.8889 194.322C94.1177 193.978 93.9185 193.512 93.5115 193.439L89.2621 192.682C88.8612 192.61 88.5155 192.967 88.5998 193.365ZM89.1311 193.837L93.4186 193.719L89.8903 198.252L89.1311 193.837Z" fill="#FFB61D"/>
<path fill-rule="evenodd" clip-rule="evenodd" d="M83.2424 182.268L84.3904 187.692C84.4957 188.189 85.1484 188.314 85.43 187.891L88.5314 183.224C88.7603 182.88 88.5611 182.414 88.1541 182.342L83.9047 181.584C83.5038 181.513 83.1581 181.87 83.2424 182.268ZM83.8039 182.149L87.6707 183.289L84.5693 187.19L83.8039 182.149Z" fill="#FFB61D"/>
<path fill-rule="evenodd" clip-rule="evenodd" d="M210.31 199.819C210.021 200.382 209.548 200.618 208.917 200.653C206.67 200.778 204.889 199.786 203.3 198.342C202.697 197.794 202.163 197.172 201.559 196.626C201.134 196.242 200.679 195.992 200.016 196.229C199.509 196.411 198.913 196.343 198.358 196.399C197.107 196.527 195.858 196.694 194.604 196.785C193.805 196.843 193.785 197.525 193.598 197.995C193.173 199.06 192.856 200.168 192.519 201.265C192.387 201.692 192.179 201.86 191.7 201.854C189.31 201.825 186.919 201.827 184.529 201.847C183.44 201.856 182.351 201.986 181.264 201.961C179.219 201.915 177.171 201.849 175.133 201.693C173.16 201.541 171.199 201.257 169.231 201.047C167.848 200.9 166.457 200.822 165.081 200.635C163.48 200.417 161.893 200.101 160.295 199.855C159.496 199.733 158.684 199.696 157.884 199.578C156.512 199.377 155.14 199.167 153.777 198.913C152.512 198.677 151.322 198.921 150.131 199.314C147.813 200.08 145.489 200.827 143.164 201.571C142.751 201.703 142.628 201.812 142.815 202.314C143.5 204.157 144.141 206.02 144.699 207.905C145.092 209.235 145.365 210.606 145.617 211.972C145.926 213.646 146.185 215.33 146.416 217.017C146.592 218.306 146.704 219.604 146.819 220.9C146.966 222.548 147.106 224.196 147.217 225.846C147.327 227.49 147.42 229.135 147.482 230.781C147.588 233.575 147.667 236.371 147.751 239.167C147.802 240.859 147.834 242.552 147.89 244.245C147.906 244.736 148.064 245.24 147.989 245.712C147.932 246.068 147.68 246.566 147.39 246.677C146.642 246.965 146.427 247.521 146.433 248.286C146.441 249.264 146.564 250.242 146.539 251.218C146.522 251.839 146.76 252.273 147.212 252.603C149.266 254.101 151.34 255.571 153.393 257.071C154.367 257.783 155.328 258.515 156.262 259.279C157.262 260.097 158.242 260.941 159.195 261.813C160.145 262.682 160.651 263.744 160.811 265.069C160.935 266.096 160.804 267.05 160.632 268.028C160.543 268.537 160.253 268.745 159.723 268.572C157.5 267.847 155.281 267.108 153.047 266.416C149.357 265.274 145.656 264.165 141.96 263.043C140.642 262.643 139.325 262.244 138.006 261.849C137.198 261.607 137.027 260.882 136.877 260.226C136.451 258.361 137.001 256.663 137.985 255.099C138.587 254.142 139.289 253.247 139.947 252.325C140.485 251.572 140.346 250.801 140.08 249.986C139.213 247.334 138.362 244.677 137.542 242.01C136.734 239.377 135.932 236.741 135.2 234.086C134.426 231.281 133.723 228.455 133.015 225.631C132.632 224.104 132.271 222.569 131.96 221.025C131.728 219.87 131.597 218.696 131.415 217.531C131.197 216.14 131.066 214.725 130.708 213.37C130.554 212.787 129.988 212.254 129.495 211.832C128.421 210.912 127.187 210.226 125.846 209.758C125.515 209.642 125.156 209.562 124.806 209.549C123.143 209.486 121.478 209.47 119.815 209.403C118.191 209.338 116.567 209.247 114.945 209.138C113.272 209.025 111.6 208.891 109.93 208.741C108.143 208.58 106.349 208.452 104.574 208.196C102.693 207.924 100.829 207.53 98.9623 207.164C98.3551 207.046 97.9116 207.414 97.8175 208.27C97.6116 210.142 96.9757 211.881 96.2204 213.584C95.6756 214.812 94.6478 215.426 93.3799 215.636C92.4748 215.785 91.5476 215.928 90.6372 215.894C88.046 215.796 85.7351 214.941 83.6796 213.297C81.0725 211.213 79.5471 208.428 78.2484 205.459C77.6664 204.128 76.9172 202.858 76.4604 201.489C75.9643 200.001 75.7133 198.431 75.3678 196.894C75.0989 195.698 74.8246 194.503 74.5984 193.298C74.4196 192.346 74.307 191.381 74.1711 190.42C73.9906 189.145 73.8126 187.868 73.641 186.591C73.5842 186.169 73.5281 185.744 73.5103 185.319C73.4547 183.988 73.4274 182.656 73.371 181.325C73.2918 179.459 73.144 177.594 73.1193 175.727C73.0772 172.534 73.0815 169.339 73.1198 166.146C73.1366 164.744 73.2552 163.341 73.3812 161.942C73.5244 160.353 73.7416 158.771 73.8999 157.183C74.0129 156.05 74.0482 154.908 74.1782 153.777C74.3688 152.117 74.578 150.458 74.8434 148.809C75.1591 146.847 75.5201 144.892 75.9018 142.942C76.624 139.252 77.4643 135.585 78.8398 132.079C79.7162 129.846 80.6308 127.567 82.4197 125.881C83.1941 125.151 84.2701 124.73 85.2323 124.212C87.8731 122.791 90.5278 121.395 93.1695 119.975C93.293 119.908 93.3991 119.715 93.4193 119.568C93.4893 119.059 93.4582 118.529 93.5832 118.037C93.6647 117.716 93.8897 117.365 94.1554 117.171C95.0466 116.521 95.9803 115.928 96.9097 115.332C97.076 115.226 97.3115 115.132 97.4943 115.162C98.4741 115.32 98.9656 114.717 99.3015 113.975C99.7563 112.97 100.171 111.943 100.524 110.898C101.109 109.168 101.698 107.434 102.14 105.665C102.293 105.055 102.058 104.327 101.92 103.67C101.64 102.332 101.407 100.97 100.956 99.6882C100.667 98.8685 100.083 98.125 99.5251 97.4333C98.0822 95.645 97.3243 93.6419 97.5669 91.3469C97.6723 90.3505 98.0997 89.4218 98.8451 88.6978C99.7223 87.8458 100.622 87.0166 101.502 86.1673C102.143 85.5482 102.097 85.0748 101.262 84.4696C100.093 83.6226 98.9718 82.7074 97.8535 81.793C96.8984 81.012 96.4875 79.8962 96.2345 78.7524C95.8904 77.1963 95.8491 75.6265 96.4837 74.1077C97.4988 71.6786 98.9615 69.6739 101.639 68.9181C103.999 68.2519 106.353 68.2971 108.471 69.6348C110.396 70.8504 111.618 72.6609 112.156 74.8955C112.787 77.5179 112.068 79.8778 110.743 82.1225C110.632 82.3105 110.621 82.5573 110.563 82.7768C110.76 82.8141 110.956 82.8758 111.154 82.8848C113.703 83.0009 116.237 83.2839 118.52 84.4989C121.516 86.0936 123.401 88.6211 124.232 91.9107C124.357 92.4032 124.356 92.9325 124.372 93.4461C124.428 95.1974 124.432 96.9512 124.536 98.6994C124.557 99.0643 124.837 99.5123 125.135 99.746C126.568 100.868 127.055 103.616 125.723 105.242C125.589 105.405 125.476 105.584 125.345 105.749C124.833 106.393 124.091 106.706 123.352 106.574C122.722 106.462 122.669 106.674 122.461 107.139C122.017 108.13 121.486 109.09 120.913 110.014C120.145 111.254 119.36 112.492 118.472 113.645C117.936 114.341 117.211 114.902 116.532 115.477C115.708 116.175 114.837 116.816 113.997 117.497C113.579 117.836 113.12 118.011 112.585 117.934C112.031 117.854 111.719 118.166 111.557 118.615C111.243 119.482 110.96 120.362 110.712 121.25C110.66 121.438 110.771 121.711 110.884 121.897C111.873 123.525 112.856 125.158 113.889 126.759C114.728 128.057 115.682 129.283 116.494 130.597C116.996 131.41 117.328 132.328 117.735 133.2C118.444 134.72 119.169 136.234 119.847 137.768C119.986 138.084 120.024 138.489 119.975 138.833C119.905 139.335 119.41 139.495 118.873 139.171C118.25 138.795 117.663 138.355 117.08 137.917C116.719 137.646 116.394 137.327 116.05 137.032C116.011 136.998 115.957 136.979 115.91 136.953C115.903 137.013 115.882 137.075 115.89 137.133C115.986 137.808 116.063 138.486 116.192 139.155C116.326 139.846 116.529 140.523 116.669 141.212C116.947 142.582 117.217 143.954 117.466 145.329C117.747 146.876 118.016 148.425 118.26 149.978C118.385 150.776 118.428 151.587 118.536 152.389C118.699 153.601 118.904 154.807 119.056 156.02C119.14 156.683 119.158 157.354 119.195 158.022C119.245 158.932 119.278 159.844 119.33 160.754C119.459 163.001 119.589 165.247 119.731 167.492C119.767 168.049 120.094 168.477 120.595 168.636C122.021 169.089 123.018 170.754 122.778 172.144C122.722 172.467 122.65 172.801 122.508 173.092C122.167 173.791 122.612 174.188 123.054 174.551C123.772 175.142 124.521 175.696 125.271 176.246C127.052 177.551 128.846 178.84 130.627 180.145C132.24 181.328 134.021 182.15 135.931 182.733C137.465 183.201 138.769 184.087 139.996 185.11C140.598 185.612 141.119 186.355 142.073 186.172C143.423 185.912 144.769 185.631 146.116 185.353C146.522 185.269 146.921 185.147 147.328 185.077C148.749 184.832 149.588 183.827 150.424 182.787C151.047 182.013 151.74 181.297 152.388 180.543C153.662 179.06 154.922 177.565 156.195 176.081C156.827 175.343 157.479 174.621 158.118 173.889C159.919 171.825 161.709 169.752 163.522 167.699C164.472 166.622 165.461 165.58 166.428 164.519C166.688 164.233 166.966 163.954 167.172 163.631C167.485 163.14 167.804 162.989 168.416 163.187C169.752 163.62 169.729 163.537 168.794 164.563C167.12 166.399 165.502 168.286 163.854 170.145C163.048 171.055 162.215 171.94 161.416 172.855C160.013 174.46 158.632 176.084 157.233 177.692C156.239 178.833 155.234 179.964 154.228 181.095C153.45 181.97 152.661 182.835 151.886 183.712C151.818 183.788 151.765 184.001 151.789 184.016C151.978 184.134 152.192 184.31 152.391 184.302C154.016 184.239 155.638 184.115 157.263 184.059C158.479 184.018 159.698 184.017 160.914 184.059C162.473 184.113 164.033 184.18 165.585 184.329C167.313 184.495 169.032 184.761 170.756 184.98C172.523 185.204 174.297 185.388 176.057 185.654C177.817 185.919 179.563 186.277 181.319 186.569C182.773 186.811 184.238 186.991 185.69 187.244C187.543 187.566 189.386 187.941 191.235 188.281C192.534 188.519 193.838 188.727 195.136 188.966C196.388 189.196 197.633 189.463 198.887 189.685C199.676 189.825 200.473 189.967 201.271 190C201.606 190.014 202.032 189.832 202.281 189.596C204.179 187.789 206.02 185.922 207.927 184.125C210.061 182.114 212.293 180.215 214.699 178.527C215.8 177.755 217.033 177.89 218.233 177.994C218.932 178.054 219.608 178.391 220.293 178.609C220.855 178.787 220.905 179.134 220.655 179.625C219.52 181.853 218.405 184.092 217.269 186.32C216.287 188.246 215.287 190.162 214.262 192.116C212.923 194.706 211.618 197.264 210.31 199.819ZM105.235 183.386C105.832 181.66 106.356 179.905 106.827 178.14C107.133 176.994 107.306 175.81 107.503 174.637C107.705 173.431 107.873 172.22 108.037 171.008C108.226 169.601 108.521 168.193 108.544 166.782C108.59 163.948 108.473 161.112 108.441 158.277C108.422 156.544 108.412 154.81 108.446 153.078C108.473 151.715 107.68 150.7 107.102 149.582C106.717 148.838 106.311 148.087 106.066 147.293C105.615 145.836 105.248 144.351 104.899 142.865C104.66 141.849 104.484 140.816 104.327 139.784C104.145 138.589 103.753 137.467 103.243 136.383C103.2 136.292 102.842 136.226 102.803 136.277C102.598 136.552 102.445 136.867 102.279 137.171C101.983 137.712 101.534 138.227 101.432 138.803C101.227 139.955 100.696 140.943 100.154 141.93C99.8162 142.545 99.2478 142.561 98.8529 141.997C98.4284 141.39 97.9699 140.778 97.6991 140.1C97.0622 138.504 96.492 136.88 95.9618 135.245C95.2649 133.097 94.6078 130.935 93.9821 128.766C93.6555 127.633 93.33 126.482 93.1928 125.317C93.0584 124.175 93.1648 123.005 93.1613 121.847C93.161 121.744 93.1293 121.64 93.1122 121.537C93.0653 121.573 93.0224 121.618 92.9708 121.646C91.7573 122.314 90.5513 122.996 89.3262 123.641C88.1111 124.281 86.8902 124.914 85.6469 125.496C84.2846 126.135 82.9173 126.794 82.1282 128.132C81.2745 129.58 80.2768 130.959 79.7625 132.591C79.2323 134.273 78.6326 135.936 78.1712 137.637C77.6991 139.377 77.3778 141.156 76.9523 142.909C76.6806 144.029 76.2329 145.115 76.0546 146.246C75.7826 147.972 75.6145 149.72 75.517 151.465C75.4334 152.963 75.4398 154.464 75.2376 155.956C75.0807 157.115 74.9741 158.28 74.8327 159.44C74.6175 161.208 74.2308 162.971 74.2031 164.74C74.1419 168.658 74.3032 172.578 74.2849 176.497C74.2754 178.551 74.5817 180.559 74.8236 182.583C75.0921 184.83 75.2512 187.091 75.5075 189.34C75.6817 190.868 75.8559 192.406 76.1819 193.906C76.7127 196.349 77.2829 198.789 77.9916 201.185C78.8759 204.174 80.1741 206.99 82.0021 209.544C83.1445 211.14 84.5389 212.447 86.2604 213.387C88.5942 214.661 91.0971 214.551 93.6047 214.162C94.016 214.098 94.5481 213.782 94.7242 213.431C95.2178 212.449 95.649 211.414 95.9301 210.353C96.3294 208.846 96.5059 207.281 96.8976 205.771C97.5435 203.282 98.3562 200.835 98.9649 198.338C99.4663 196.281 100.422 194.425 101.252 192.512C101.863 191.105 102.585 189.746 103.324 188.299C103.966 186.663 104.662 185.046 105.235 183.386ZM127.265 208.794C128.472 209.532 129.656 210.315 130.805 211.141C131.523 211.657 132.038 212.407 132.195 213.274C132.56 215.282 132.801 217.311 133.153 219.321C133.4 220.732 133.755 222.124 134.049 223.526C134.288 224.668 134.509 225.814 134.736 226.959C134.959 228.083 135.176 229.209 135.401 230.333C135.573 231.19 135.751 232.046 135.932 232.901C136.225 234.283 136.459 235.682 136.837 237.041C137.21 238.379 137.771 239.664 138.181 240.994C138.862 243.206 139.708 245.348 140.687 247.446C140.919 247.943 141.31 247.843 141.541 247.752C143.007 247.178 144.452 246.552 145.888 245.907C146.341 245.704 146.582 245.31 146.562 244.771C146.505 243.308 146.465 241.844 146.425 240.38C146.377 238.629 146.336 236.877 146.292 235.126C146.248 233.411 146.238 231.695 146.149 229.983C146.062 228.31 145.898 226.641 145.759 224.971C145.587 222.891 145.426 220.809 145.222 218.732C145.081 217.297 144.952 215.854 144.681 214.442C144.211 211.995 143.634 209.57 143.104 207.135C142.487 204.297 141.294 201.825 138.936 199.968C137.14 198.553 135.256 197.291 133.219 196.282C130.966 195.165 128.687 194.078 126.348 193.161C123.674 192.112 121.077 190.787 118.133 190.546C116.718 190.43 115.315 190.182 113.903 190.032C112.77 189.911 111.628 189.877 110.496 189.753C108.704 189.557 106.918 189.296 105.124 189.12C104.873 189.095 104.494 189.332 104.34 189.559C103.985 190.082 103.718 190.667 103.441 191.24C102.577 193.027 101.564 194.763 100.907 196.625C100.038 199.084 99.4478 201.642 98.743 204.159C98.3437 205.585 98.3352 205.649 99.5785 205.91C101.017 206.211 102.479 206.411 103.936 206.612C104.889 206.743 105.855 206.779 106.812 206.889C108.625 207.098 110.434 207.347 112.248 207.543C113.402 207.667 114.563 207.742 115.723 207.811C117.456 207.914 119.189 208.01 120.924 208.073C121.963 208.111 123.004 208.08 124.177 208.08C125.266 208.06 126.33 208.223 127.265 208.794ZM179.319 200.512C180.436 200.564 181.554 200.619 182.672 200.642C185.265 200.698 187.858 200.741 190.451 200.773C190.969 200.779 191.435 200.565 191.575 200.032C192.326 197.164 193.803 194.504 193.993 191.47C194.041 190.7 193.708 190.157 192.922 190.019C192.102 189.876 191.293 189.675 190.476 189.519C189.448 189.323 188.415 189.151 187.386 188.962C186.462 188.792 185.539 188.616 184.616 188.437C183.941 188.307 183.268 188.163 182.593 188.035C181.299 187.791 180.004 187.551 178.709 187.314C177.824 187.152 176.939 186.985 176.05 186.843C175.361 186.732 174.666 186.662 173.975 186.562C172.515 186.349 171.057 186.128 169.598 185.909C168.765 185.785 167.933 185.648 167.099 185.535C165.985 185.385 164.868 185.131 163.754 185.137C160.958 185.153 158.162 185.276 155.367 185.385C154.03 185.437 152.691 185.512 151.363 185.661C150.619 185.745 149.904 185.981 149.365 186.607C148.486 187.628 147.543 188.592 146.655 189.605C146.095 190.245 145.57 190.918 145.058 191.597C144.38 192.496 143.554 193.042 142.372 192.95C140.437 192.801 138.498 192.691 136.563 192.542C135.845 192.487 135.13 192.38 134.416 192.28C133.205 192.111 131.997 191.914 130.785 191.755C129.625 191.603 128.462 191.477 127.298 191.358C126.97 191.324 126.634 191.343 126.303 191.361C126.237 191.365 126.178 191.478 126.115 191.54C126.183 191.571 126.251 191.6 126.317 191.634C126.9 191.938 127.467 192.277 128.066 192.541C129.824 193.318 131.637 193.981 133.351 194.843C135.839 196.095 138.161 197.623 140.272 199.46C140.927 200.03 141.555 200.453 142.629 200.31C144.331 200.084 145.921 199.664 147.448 198.921C149.503 197.921 151.595 197.1 153.958 197.59C155.325 197.874 156.7 198.122 158.066 198.415C158.931 198.601 159.775 198.906 160.646 199.036C161.727 199.196 162.828 199.224 163.919 199.319C165.904 199.492 167.888 199.676 169.873 199.848C171.221 199.965 172.57 200.071 173.985 200.248C175.763 200.336 177.541 200.429 179.319 200.512ZM110.159 162.158C110.178 162.688 110.157 163.219 110.166 163.75C110.207 166.232 110.246 168.713 110.302 171.195C110.318 171.915 110.286 172.657 110.451 173.348C110.785 174.746 111.223 176.12 111.65 177.494C111.833 178.083 112.087 178.643 112.752 178.876C113.331 179.079 113.891 179.334 114.471 179.533C115.332 179.828 115.596 179.717 116.157 178.929C116.342 178.669 116.556 178.428 116.765 178.185C118.109 176.617 119.494 175.082 120.789 173.475C121.745 172.288 121.579 170.379 119.979 169.766C119.807 169.7 119.636 169.621 119.458 169.584C118.512 169.388 118.556 169.39 118.524 168.497C118.412 165.304 118.787 162.103 118.285 158.914C118.085 157.641 118.167 156.324 117.983 155.047C117.697 153.061 117.3 151.089 116.936 149.114C116.592 147.245 116.247 145.377 115.87 143.515C115.589 142.126 115.251 140.748 114.948 139.363C114.717 138.306 114.535 137.237 114.256 136.194C114.181 135.912 113.831 135.703 113.607 135.461C113.345 135.714 112.886 135.945 112.854 136.224C112.694 137.639 112.475 139.082 112.6 140.487C112.742 142.1 112.985 143.699 112.677 145.301C112.326 147.126 111.742 148.879 110.753 150.476C110.205 151.361 109.795 152.279 109.888 153.374C109.981 154.458 110.011 155.549 110.026 156.637C110.048 158.185 110.032 159.734 110.032 161.416C110.076 161.663 110.149 161.909 110.159 162.158ZM103.194 107.319C103.083 107.492 102.928 107.651 102.866 107.84C102.235 109.771 101.659 111.72 100.985 113.634C100.579 114.788 99.9415 115.817 98.8875 116.542C98.1218 117.069 97.4076 117.67 96.6583 118.221C96.2888 118.493 96.3668 118.729 96.5973 119.059C97.2868 120.047 98.0156 121.019 98.5911 122.072C99.3854 123.526 100.066 125.043 100.773 126.543C101.461 128.005 102.181 129.457 102.777 130.957C103.284 132.231 103.557 133.599 104.078 134.866C104.549 136.011 105.055 137.14 105.226 138.366C105.284 138.783 105.419 138.787 105.735 138.786C107.634 138.779 109.468 138.528 111.07 137.397C111.207 137.301 111.323 137.102 111.348 136.935C111.411 136.532 111.401 136.117 111.448 135.711C111.481 135.424 111.668 135.114 111.601 134.864C111.352 133.934 111.02 133.027 110.73 132.108C110.175 130.352 109.448 128.615 109.398 126.763C109.348 124.879 109.517 122.986 109.646 121.1C109.699 120.331 109.85 119.559 110.044 118.812C110.273 117.935 110.218 117.695 109.427 117.267C108.125 116.563 107.002 115.617 106.199 114.396C104.889 112.403 103.883 110.259 103.524 107.781C103.414 107.627 103.304 107.473 103.194 107.319ZM122.088 106.731C122.124 106.66 122.446 106.436 121.967 106.355C121.483 106.274 120.936 106.039 120.604 105.692C119.952 105.012 119.412 104.22 118.864 103.447C118.709 103.229 118.654 103.096 118.436 103.358C118.297 103.525 118.118 103.657 117.98 103.823C116.781 105.27 115.058 105.885 113.445 105.483C111.511 105.001 110.331 102.939 110.305 101.149C110.295 100.436 110.069 99.8385 109.499 99.4282C108.551 98.7454 107.576 98.0995 106.602 97.4543C106.056 97.0932 105.536 97.2113 105.396 97.7809C105.047 99.1911 104.613 100.605 104.491 102.04C104.341 103.816 104.412 105.61 104.837 107.382C105.551 110.368 106.479 113.206 108.916 115.31C110.487 116.667 112.427 116.972 114.298 116.151C116.152 115.337 117.291 113.832 118.399 112.265C119.33 110.949 120.259 109.63 121.255 108.246C121.537 107.743 121.829 107.245 122.088 106.731ZM202.376 195.418C203.664 197.058 205.162 198.426 207.212 199.088C208.478 199.497 208.942 199.425 209.643 198.089C211.073 195.364 212.486 192.63 213.894 189.894C214.457 188.801 214.977 187.686 215.541 186.594C216.642 184.46 217.758 182.334 218.874 180.209C219.078 179.821 218.884 179.469 218.584 179.429C217.543 179.29 216.443 178.993 215.476 179.636C214.201 180.484 212.917 181.338 211.744 182.317C209.965 183.802 208.251 185.369 206.563 186.959C205.797 187.68 205.151 188.53 204.47 189.338C203.933 189.977 203.243 190.515 203.038 191.387C202.849 192.194 202.662 193.002 202.475 193.942C202.254 194.423 202.007 194.949 202.376 195.418ZM158.509 266.671C158.813 266.695 159.398 266.557 159.4 266.475C159.44 265.333 159.656 264.122 158.63 263.229C157.297 262.07 156.006 260.857 154.616 259.77C152.373 258.016 150.065 256.346 147.782 254.643C146.967 254.035 146.156 253.389 145.118 253.23C144.189 253.088 143.242 253.069 142.31 252.945C141.524 252.839 140.988 253.18 140.511 253.746C139.353 255.119 138.511 256.645 138.192 258.427C137.943 259.824 138.392 260.594 139.52 260.926C141.667 261.558 143.799 262.242 145.942 262.888C147.477 263.352 149.027 263.769 150.56 264.242C152.795 264.932 155.02 265.654 157.382 266.362C157.757 266.471 158.128 266.641 158.509 266.671ZM113.418 180.596C111.936 180.009 110.462 179.4 108.975 178.822C108.536 178.651 108.163 178.601 108.018 179.277C107.861 180.011 107.525 180.707 107.283 181.424C106.746 183.016 106.206 184.607 105.697 186.208C105.603 186.504 105.46 186.919 106.044 186.975C106.806 187.049 107.562 187.176 108.325 187.231C109.814 187.34 111.304 187.446 112.796 187.495C115.012 187.568 117.229 187.595 119.446 187.634C120.154 187.646 120.862 187.633 121.57 187.637C121.743 187.638 121.925 187.626 122.085 187.676C124.005 188.276 125.917 188.897 127.839 189.491C129.771 190.089 131.707 190.675 133.771 190.56C134.488 190.52 134.619 190.386 134.356 189.726C134.212 189.366 134.012 189 133.747 188.722C132.454 187.367 130.876 186.421 129.186 185.643C127.841 185.023 126.525 184.332 125.012 184.176C124.303 184.103 123.589 184.002 122.901 183.823C121.808 183.54 120.724 183.213 119.655 182.849C118.319 182.394 117.002 181.883 115.544 181.396C114.835 181.13 114.122 180.875 113.418 180.596ZM96.7435 121.99C96.122 121.026 95.4679 120.084 94.8258 119.135C94.7364 119.003 94.6388 118.876 94.5449 118.747C94.4829 118.964 94.3957 119.178 94.3636 119.4C94.2574 120.133 94.1976 120.874 94.0717 121.603C93.8224 123.046 93.6869 124.465 94.6226 125.748C94.6819 125.829 94.7284 125.927 94.7551 126.024C95.0992 127.275 95.4372 128.527 95.7803 129.778C95.8671 130.095 95.9578 130.411 96.0619 130.722C96.5094 132.062 97.0518 133.378 97.3891 134.745C97.7355 136.148 98.0008 137.559 98.7203 138.842C98.927 139.21 98.994 139.655 99.1466 140.057C99.1921 140.176 99.3421 140.369 99.3898 140.355C99.5418 140.307 99.7422 140.206 99.7933 140.076C100.387 138.55 100.674 136.884 101.801 135.602C102.758 134.514 102.559 133.403 101.972 132.241C101.743 131.787 101.601 131.29 101.396 130.822C100.953 129.812 100.529 128.79 100.033 127.806C99.6002 126.946 99.0757 126.132 98.5991 125.293C98.264 124.703 97.9413 124.106 97.5466 123.446C97.2809 122.96 97.0434 122.454 96.7435 121.99ZM132.619 182.919C130.68 181.665 128.713 180.448 126.833 179.109C125.259 177.988 123.801 176.707 122.272 175.522C121.859 175.202 121.385 175.096 120.963 175.578C120.28 176.359 119.583 177.128 118.901 177.91C118.393 178.493 117.905 179.092 117.395 179.674C116.998 180.128 117.039 180.372 117.622 180.546C119.493 181.106 121.379 181.621 123.244 182.198C125.792 182.987 128.336 183.788 130.86 184.646C131.667 184.921 132.379 185.476 133.186 185.754C134.005 186.037 134.881 186.185 135.744 186.305C136.741 186.444 137.75 186.499 138.756 186.562C138.917 186.572 139.087 186.428 139.252 186.356C139.154 186.22 139.08 186.054 138.954 185.952C137.359 184.646 135.455 183.973 133.474 183.254C133.188 183.145 132.871 183.082 132.619 182.919ZM107.363 147.95C107.61 148.886 108.196 149.341 109.098 149.425C109.877 149.499 110.106 149.071 110.296 148.502C110.568 147.687 110.837 146.87 111.093 146.05C111.66 144.227 111.578 142.39 111.239 140.537C111.128 139.933 111.154 139.303 111.127 138.685C111.123 138.595 111.168 138.503 111.191 138.412C111.1 138.439 111.005 138.457 110.918 138.493C110.371 138.719 109.845 139.033 109.276 139.16C108.211 139.4 107.125 139.558 106.041 139.696C105.623 139.75 105.375 139.794 105.508 140.306C105.633 140.79 105.684 141.292 105.783 141.783C105.998 142.841 106.224 143.897 106.446 145.086C106.755 146.04 107.108 146.982 107.363 147.95ZM118.714 137.964C118.817 138.051 118.932 138.125 119.041 138.205C119.04 138.057 119.081 137.893 119.032 137.763C118.744 136.998 118.476 136.222 118.125 135.486C117.376 133.915 116.688 132.3 115.774 130.828C114.875 129.381 113.664 128.13 112.709 126.713C112.025 125.698 111.541 124.549 110.957 123.465C110.867 123.298 110.719 123.163 110.598 123.014C110.542 123.189 110.434 123.367 110.439 123.541C110.466 124.673 110.481 125.807 110.576 126.934C110.641 127.703 110.77 128.477 110.977 129.22C111.206 130.044 111.622 130.818 111.837 131.645C112.088 132.612 112.547 133.225 113.484 133.741C115.038 134.599 116.642 135.49 117.735 137.121C118.061 137.402 118.385 137.685 118.714 137.964ZM111.795 100.45C111.286 101.193 112.231 103.795 112.745 103.988C116.345 105.343 117.371 103.025 117.418 102.388C117.512 101.125 117.668 99.844 116.473 98.8196C113.323 98.193 112.62 99.2501 111.795 100.45ZM125.578 101.502C125.094 100.297 124.362 99.5107 123.087 99.7858C122.437 99.9262 121.864 100.442 121.265 100.804C119.98 101.581 119.812 102.007 120.261 103.385C120.711 104.764 121.76 105.555 123.094 105.823C124.199 106.045 124.988 105.36 125.572 104.329C125.719 103.388 125.961 102.456 125.578 101.502ZM120.811 99.9437C121.33 99.5747 121.893 99.0283 122.453 99.0081C123.421 98.9732 123.264 98.3817 123.159 97.9158C122.867 96.6143 122.486 95.332 122.114 94.0497C121.859 93.1719 121.643 93.1215 121.025 93.7398C119.966 94.7989 118.893 95.8375 117.562 96.5686C117.146 96.7973 117.089 97.3241 117.386 97.7391C117.497 97.8936 117.647 98.0261 117.73 98.193C118.14 99.0156 118.511 99.8581 118.947 100.665C119.044 100.844 118.971 101.475 119.595 101.01C119.998 100.651 120.374 100.255 120.811 99.9437ZM198.972 195.18C199.876 195.012 200.844 194.78 200.984 193.578C201.007 193.377 201.099 193.184 201.145 192.983C201.43 191.741 201.107 191.343 199.863 191.209C198.692 191.083 197.529 190.874 196.365 190.686C195.742 190.585 195.627 190.702 195.558 191.336C195.463 192.214 195.326 193.089 195.162 193.957C195.018 194.718 195.231 195.319 195.9 195.468C196.925 195.38 197.965 195.367 198.972 195.18ZM144.734 251.738C144.861 251.733 145.075 251.482 145.08 251.339C145.111 250.389 145.089 249.438 145.099 248.488C145.105 247.954 144.696 247.936 144.402 248.03C143.763 248.233 143.155 248.537 142.537 248.808C142.091 249.005 141.59 249.164 141.644 249.807C141.682 250.26 141.682 250.725 141.787 251.164C141.961 251.893 142.59 251.547 143.104 251.692C143.648 251.714 144.193 251.763 144.734 251.738ZM109.358 174.511C109.32 174.403 109.162 174.336 109.06 174.251C108.985 174.358 108.856 174.459 108.845 174.572C108.783 175.255 108.73 175.939 108.709 176.624C108.688 177.293 109.162 177.727 109.843 177.665C109.958 177.655 110.163 177.452 110.148 177.37C110.047 176.826 109.899 176.291 109.7 175.687C109.589 175.294 109.494 174.895 109.358 174.511ZM146.779 187.052C146.853 186.907 147.008 186.5 146.557 186.584C145.87 186.713 145.194 186.908 144.519 187.092C144.395 187.126 144.294 187.242 144.183 187.32C144.312 187.381 144.439 187.49 144.571 187.494C145.122 187.514 145.674 187.503 146.292 187.436C146.461 187.312 146.694 187.22 146.779 187.052ZM95.4879 117.406C95.382 117.467 95.2762 117.529 95.1703 117.591C95.2536 117.683 95.3218 117.812 95.4258 117.856C95.4879 117.882 95.6241 117.793 95.6958 117.723C96.1046 117.327 96.506 116.923 96.9049 116.517C96.9848 116.436 97.0429 116.333 97.111 116.24C96.9767 116.267 96.808 116.25 96.714 116.326C96.3154 116.649 95.9389 116.999 95.4879 117.406Z" fill="#00160A"/>
<path fill-rule="evenodd" clip-rule="evenodd" d="M109.72 109.672C109.098 109.336 108.483 109.06 108.353 108.31C108.102 106.854 108.627 105.138 110.525 105.237C112.237 105.327 113.323 106.749 112.717 108.354C112.271 109.538 111.187 110.125 109.72 109.672Z" fill="#FFB61D"/>
<path fill-rule="evenodd" clip-rule="evenodd" d="M118.161 104.239C118.195 104.015 118.23 103.859 118.264 103.703C118.318 103.839 118.387 103.971 118.423 104.112C118.69 105.157 119.536 107.759 118.528 108.956C118.444 109.055 118.019 109.071 117.754 109.054C117.234 109.021 116.627 108.254 116.724 107.759C116.738 107.684 117.994 108.903 118.264 108.244C118.713 107.143 118.161 104.617 118.161 104.239Z" fill="#00160A"/>
<path fill-rule="evenodd" clip-rule="evenodd" d="M111.076 111.862C111.024 111.835 110.951 111.842 110.889 111.845C110.734 111.851 110.522 111.574 110.612 111.457C110.748 111.281 110.902 111.102 111.086 110.986C111.195 110.917 111.376 111.141 111.363 111.241C111.352 111.315 111.423 111.431 111.491 111.481C112.531 112.245 113.686 112.74 114.949 112.978C115.032 112.994 115.105 113.068 115.183 113.115C115.105 113.169 115.028 113.274 114.95 113.269C113.572 113.189 111.979 112.32 111.076 111.862Z" fill="#00160A"/>
<path fill-rule="evenodd" clip-rule="evenodd" d="M77.4981 171.686L76.189 177.277C76.0878 177.71 76.4946 178.088 76.9185 177.956L81.4629 176.541C81.8452 176.422 81.9913 175.958 81.746 175.642L78.5107 171.466C78.2148 171.084 77.6082 171.216 77.4981 171.686ZM78.0569 172.583L80.9096 175.993L76.7479 177.408L78.0569 172.583Z" fill="#FFB61D"/>
<path fill-rule="evenodd" clip-rule="evenodd" d="M81.5593 139.43C81.0808 139.387 80.7645 139.916 81.0285 140.317L84.3577 145.378C84.5821 145.72 85.081 145.724 85.3113 145.387L88.3755 140.899C88.6227 140.537 88.3893 140.043 87.9528 140.004L81.5593 139.43ZM82.0097 140.004L87.7337 141.116L84.3577 144.65L82.0097 140.004Z" fill="#FFB61D"/>
<path fill-rule="evenodd" clip-rule="evenodd" d="M102.658 178.131H97.9626C97.5733 178.131 97.297 178.511 97.4162 178.881L98.9936 183.784C99.1425 184.247 99.7634 184.326 100.024 183.916L103.143 179.013C103.386 178.631 103.111 178.131 102.658 178.131ZM102.276 179.088L99.9226 183.608L98.3453 178.705L102.276 179.088Z" fill="#FFB61D"/>
<path fill-rule="evenodd" clip-rule="evenodd" d="M87.272 204.698L87.0574 208.948C87.0349 209.393 87.5069 209.693 87.9006 209.484L93.3602 206.575C93.8227 206.329 93.7403 205.642 93.2326 205.512L87.9876 204.171C87.636 204.081 87.2903 204.335 87.272 204.698ZM87.687 205.103L92.7044 205.8L87.9006 208.64L87.687 205.103Z" fill="#FFB61D"/>
<path fill-rule="evenodd" clip-rule="evenodd" d="M80.033 152.495L75.8237 155.413C75.4675 155.66 75.5029 156.197 75.8885 156.395L80.8145 158.924C81.2263 159.136 81.7061 158.798 81.6457 158.339L80.9291 152.892C80.8731 152.466 80.3861 152.25 80.033 152.495ZM80.2021 153.509L81.0766 158.414L76.1507 155.885L80.2021 153.509Z" fill="#FFB61D"/>
<path fill-rule="evenodd" clip-rule="evenodd" d="M99.3468 164.993L96.7203 168.914C96.4942 169.252 96.6809 169.711 97.0785 169.795L100.15 170.445C100.529 170.525 100.877 170.214 100.84 169.827L100.395 165.256C100.343 164.72 99.6468 164.545 99.3468 164.993ZM100.062 165.778V169.978L97.4214 168.914L100.062 165.778Z" fill="#FFB61D"/>
<path fill-rule="evenodd" clip-rule="evenodd" d="M99.8444 146.518C100.609 146.019 101.279 146.137 100.734 147.235C100.734 147.235 96.7497 157.336 95.5593 157.455C94.4305 157.569 93.8856 156.109 92.3094 151.935L92.2425 151.757C92.2366 151.742 92.2314 151.726 92.2268 151.71L92.2185 151.677L92.2081 151.658L92.1863 151.607L91.9978 151.098C91.7752 150.49 91.2149 149.487 90.9185 149.138C90.6027 148.767 91.3072 148.537 91.8277 148.537C92.7989 148.537 93.9875 148.809 95.8566 148.269C98.0457 147.637 98.797 147.201 99.8444 146.518ZM98.1502 151.707L98.0976 151.741C97.5418 152.083 96.9276 152.346 96.2564 152.53C95.4535 152.749 94.2886 152.776 93.535 152.612L93.4089 152.582L93.4554 152.698C93.8807 153.758 94.2589 154.984 94.5884 155.607L94.7034 155.82C94.91 156.191 95.0914 156.461 95.2382 156.623L95.284 156.671L95.341 156.602C95.5867 156.288 96.4613 155.106 97.0688 153.925L97.1323 153.801C97.3925 153.291 97.6761 152.712 97.9834 152.063L98.1502 151.707ZM99.7899 147.685L99.6975 147.737C98.8332 148.219 97.4037 149.017 96.1749 149.372C94.7041 149.797 93.4571 149.948 92.4313 149.812L92.3685 149.803L92.4045 149.904C92.5024 150.179 92.9179 151.477 93.0649 151.677C93.6602 152.227 94.3902 152.279 95.284 152.063L95.4121 152.029C98.6125 151.411 99.7899 147.685 99.7899 147.685Z" fill="#FFB61D"/>
<path fill-rule="evenodd" clip-rule="evenodd" d="M212.18 182.997C212.308 182.903 212.488 182.93 212.582 183.058C213.244 183.956 214.366 184.001 215.857 183.173C215.996 183.096 216.171 183.146 216.248 183.284C216.324 183.423 216.274 183.597 216.136 183.674C214.42 184.627 212.984 184.57 212.12 183.398C212.026 183.271 212.053 183.091 212.18 182.997Z" fill="#E7EAEE"/>
<path fill-rule="evenodd" clip-rule="evenodd" d="M210.011 185.296C210.128 185.19 210.31 185.198 210.416 185.316C211.421 186.421 212.757 186.484 213.843 185.904C213.983 185.829 214.157 185.882 214.231 186.022C214.306 186.162 214.253 186.336 214.113 186.41C212.816 187.103 211.196 187.027 209.992 185.702C209.885 185.584 209.894 185.403 210.011 185.296Z" fill="#E7EAEE"/>
<path fill-rule="evenodd" clip-rule="evenodd" d="M207.661 187.574C207.776 187.465 207.958 187.47 208.066 187.586C209.035 188.615 211.004 189.118 212.351 188.404C212.491 188.33 212.665 188.383 212.739 188.523C212.813 188.663 212.76 188.837 212.62 188.911C211.025 189.756 208.782 189.183 207.648 187.979C207.54 187.864 207.545 187.682 207.661 187.574Z" fill="#E7EAEE"/>
<path fill-rule="evenodd" clip-rule="evenodd" d="M209.485 196.574C211.5 195.599 209.417 191.987 207.467 193.449C206.217 194.387 207.588 197.492 209.485 196.574Z" fill="#E7EAEE"/>
</svg>
